<?xml version="1.0" encoding="utf-8"?>
<!-- Generator: Adobe Illustrator 21.1.0, SVG Export Plug-In . SVG Version: 6.00 Build 0)  -->
<svg version="1.1" id="Layer_1" xmlns="http://www.w3.org/2000/svg" xmlns:xlink="http://www.w3.org/1999/xlink" x="0px" y="0px"
	 viewBox="0 0 1000 310" style="enable-background:new 0 0 1000 310;" xml:space="preserve">
<style type="text/css">
	.st0{fill:#38AEFF;}
	.st1{fill:#FF9900;}
	.st2{fill:#FFFFFF;}
</style>
<g id="engage_5_">
	<g>
		<path class="st0" d="M387,218.5c3.9-2,5.8-6.4,5.8-13.2c0-7.3-1.9-14.5-5.6-21.6c-3.8-7.1-9.4-12.8-17-17.3
			c-7.6-4.5-16.6-6.7-27.2-6.7c-8.1,0-15.5,1.3-22.2,3.9c-6.7,2.6-12.3,6.4-16.8,11.3c-4.5,4.9-8,10.8-10.4,17.6
			c-2.4,6.8-3.6,14.3-3.6,22.2c0,17,4.8,30.4,14.5,40.3c9.6,9.9,23.1,14.9,40.5,14.9c7.6,0,14.3-1,20.2-3c5.8-2,10.7-4.5,14.6-7.5
			c3.9-3,6.7-6.1,8.7-9.4c1.9-3.3,2.9-6.1,2.9-8.6c0-2.8-0.9-4.9-2.6-6.4c-1.7-1.5-4-2.3-6.7-2.3c-2.6,0-4.6,0.6-5.9,1.8
			c-3.4,3.2-6.1,5.7-8.2,7.5c-2.1,1.9-4.4,3.6-6.9,5.2c-2.5,1.6-5.1,2.8-7.8,3.6c-2.7,0.8-5.6,1.1-8.9,1.1c-4.8,0-9.2-1.2-13.2-3.6
			c-4-2.4-7.2-5.9-9.6-10.6c-2.4-4.7-3.6-10.1-3.7-16.3h52.9C377.7,221.5,383.1,220.5,387,218.5z M317.7,206.1
			c0.9-9.1,3.5-16,7.9-20.7c4.3-4.7,9.8-7,16.6-7c7.1,0,12.7,2.3,17.1,6.9c4.3,4.6,6.8,11.5,7.5,20.8H317.7z M507.5,177.7
			c-2.8-5.7-7-10.1-12.6-13.2c-5.6-3.1-12-4.7-19.1-4.7c-7.3,0-13.8,1.5-19.4,4.4c-5.7,2.9-10.8,7.6-15.6,13.8v-3.3
			c0-3.2-0.6-6-1.7-8.2c-1.2-2.2-2.7-3.9-4.6-5c-1.9-1.1-4.1-1.7-6.4-1.7c-3.9,0-7,1.3-9.2,3.8c-2.2,2.5-3.4,6.4-3.4,11.6v78.2
			c0,5.3,1.3,9.3,3.8,12.2c2.5,2.8,5.7,4.3,9.6,4.3c4,0,7.3-1.4,9.8-4.1c2.5-2.7,3.8-6.9,3.8-12.3v-33.9c0-11,0.7-18.6,2-22.6
			c1.8-5,4.7-9,8.7-11.8c4-2.9,8.3-4.3,13.2-4.3c7.4,0,12.3,2.4,14.8,7.1c2.5,4.7,3.7,11.5,3.7,20.5v45.1c0,5.3,1.2,9.3,3.8,12.2
			c2.5,2.8,5.8,4.3,9.8,4.3c4,0,7.2-1.4,9.7-4.2c2.5-2.8,3.7-6.9,3.7-12.3v-50.3c0-5.9-0.3-10.8-0.8-14.7
			C510.5,184.6,509.3,181,507.5,177.7z M625.7,159.8c-3.6,0-6.6,1.3-8.9,3.9c-2.3,2.6-3.5,6.2-3.5,10.9v3.7
			c-4.8-6.3-10-10.9-15.6-13.8c-5.6-2.9-12.2-4.4-19.9-4.4c-6.4,0-12.3,1.1-17.6,3.4c-5.4,2.3-10.1,5.7-14.2,10.2
			c-4.1,4.5-7.2,10-9.5,16.6c-2.2,6.5-3.3,13.9-3.3,22c0,10.9,1.8,20.5,5.4,28.8c3.6,8.3,8.8,14.8,15.6,19.4
			c6.8,4.6,14.7,6.9,23.7,6.9c7.5,0,14-1.5,19.5-4.6c5.4-3,10.2-7.5,14.4-13.3c-0.1,8.9-0.3,15.3-0.6,19.3c-0.3,4-1.2,7.7-2.7,11.2
			c-1.6,3.5-4.3,6.2-8.1,8.2c-3.9,2-9.3,2.9-16.3,2.9c-3.4,0-6.5-0.3-9.1-0.9c-2.6-0.6-4.9-1.6-6.8-2.9c-1.9-1.3-3.6-2.8-5.1-4.7
			c-1.5-1.8-3.1-3.6-4.5-5.4c-3-3.5-6.4-5.3-10.4-5.3c-3.2,0-5.9,1-8.1,3.1c-2.2,2.1-3.4,4.8-3.4,8.1c0,4.4,2,8.6,5.9,12.7
			c4,4.1,9.6,7.5,16.9,10.1c7.3,2.6,15.6,3.9,24.9,3.9c10.2,0,18.7-1,25.5-3.1c6.8-2,12.4-5.2,16.6-9.4c4.2-4.2,7.3-9.6,9.2-16.1
			c1.9-6.5,2.9-14.2,2.9-23.2v-78.6c0-6.4-0.9-11.3-2.6-14.7C634.4,161.6,631,159.8,625.7,159.8z M608.6,232.7
			c-2.5,4.9-5.8,8.5-9.8,10.9c-4,2.4-8.2,3.6-12.7,3.6c-7.6,0-13.8-2.8-18.6-8.4c-4.8-5.6-7.2-13.9-7.2-24.9c0-10.8,2.3-19.2,7-25.1
			c4.7-5.9,10.8-8.8,18.6-8.8c7.9,0,14.3,3.1,19.2,9.2c4.8,6.1,7.3,14.7,7.3,25.8C612.4,222,611.1,227.9,608.6,232.7z M754.5,232.3
			c0.1-5.4,0.1-10.3,0.1-14.8c0-4.4,0-9.8,0-16.2c0-10-1.4-18.1-4.2-24.2c-2.8-6.1-7.6-10.5-14.4-13.3c-6.8-2.8-16.1-4.2-28-4.2
			c-10.6,0-19.5,1.4-26.6,4.4c-7.1,2.9-12.4,6.6-15.7,11.1c-3.4,4.5-5.1,9.1-5.1,13.9c0,3,1.1,5.5,3.3,7.5c2.2,1.9,4.8,2.9,7.9,2.9
			c3.4,0,5.6-0.6,6.6-1.8c1-1.2,2.8-3.8,5.2-7.6c2.5-3.8,5.5-6.7,8.9-8.6c3.5-1.9,8.6-2.9,15.5-2.9c8,0,13.2,1.7,15.8,5
			c2.5,3.3,4,8.6,4.3,15.7c-5.7,1.7-10.9,3.1-15.8,4.2c-4.8,1.2-10.7,2.4-17.5,3.8c-6.8,1.4-11.1,2.3-12.8,2.7
			c-8.2,1.8-14.6,5.3-19.3,10.5c-4.7,5.2-7,11.5-7,18.9c0,5.5,1.4,10.6,4.3,15.3c2.8,4.7,6.9,8.4,12.1,11.2
			c5.2,2.7,11.3,4.1,18.3,4.1c7.6,0,14.4-1.3,20.5-3.8c6.1-2.5,12.4-6.4,19-11.5c3,5,5.9,8.7,8.6,11.4c2.7,2.6,5.4,3.9,8.2,3.9
			c3.3,0,6.2-1.1,8.9-3.4c2.6-2.3,3.9-4.8,3.9-7.6c0-1.6-0.8-5.1-2.5-10.7C755.3,242.7,754.5,237.4,754.5,232.3z M728.1,219.3
			c0,9.4-1.2,16.1-3.7,20.2c-2.1,3.7-5.4,6.7-10,9.1c-4.5,2.3-9.5,3.5-14.8,3.5c-5,0-9.1-1.4-12.2-4.3c-3.1-2.9-4.7-6.4-4.7-10.5
			c0-4,1.3-7,4-9.3c2.6-2.2,5.4-3.7,8.3-4.5c2.9-0.8,8.1-1.9,15.7-3.6c7.6-1.6,13.3-3.2,17.3-4.6V219.3z M866.4,159.8
			c-3.6,0-6.6,1.3-8.9,3.9c-2.3,2.6-3.5,6.2-3.5,10.9v3.7c-4.8-6.3-10-10.9-15.6-13.8c-5.6-2.9-12.2-4.4-19.9-4.4
			c-6.4,0-12.3,1.1-17.6,3.4c-5.3,2.3-10.1,5.7-14.2,10.2c-4.1,4.5-7.2,10-9.5,16.6c-2.2,6.5-3.3,13.9-3.3,22
			c0,10.9,1.8,20.5,5.5,28.8c3.6,8.3,8.8,14.8,15.6,19.4c6.8,4.6,14.7,6.9,23.7,6.9c7.5,0,14-1.5,19.5-4.6c5.4-3,10.2-7.5,14.4-13.3
			c-0.1,8.9-0.3,15.3-0.6,19.3c-0.3,4-1.2,7.7-2.7,11.2c-1.6,3.5-4.3,6.2-8.1,8.2c-3.9,2-9.3,2.9-16.3,2.9c-3.4,0-6.5-0.3-9.1-0.9
			c-2.6-0.6-4.9-1.6-6.8-2.9c-1.9-1.3-3.6-2.8-5.1-4.7c-1.6-1.8-3.1-3.6-4.5-5.4c-3-3.5-6.4-5.3-10.4-5.3c-3.2,0-5.9,1-8.1,3.1
			c-2.2,2.1-3.4,4.8-3.4,8.1c0,4.4,2,8.6,5.9,12.7c4,4.1,9.6,7.5,16.9,10.1c7.3,2.6,15.6,3.9,24.9,3.9c10.2,0,18.7-1,25.5-3.1
			c6.8-2,12.4-5.2,16.6-9.4c4.2-4.2,7.3-9.6,9.2-16.1c1.9-6.5,2.9-14.2,2.9-23.2v-78.6c0-6.4-0.9-11.3-2.6-14.7
			C875.1,161.6,871.7,159.8,866.4,159.8z M849.3,232.7c-2.5,4.9-5.8,8.5-9.7,10.9c-4,2.4-8.2,3.6-12.7,3.6c-7.6,0-13.8-2.8-18.6-8.4
			c-4.8-5.6-7.2-13.9-7.2-24.9c0-10.8,2.3-19.2,7-25.1c4.6-5.9,10.8-8.8,18.6-8.8c7.9,0,14.3,3.1,19.2,9.2
			c4.9,6.1,7.3,14.7,7.3,25.8C853.1,222,851.8,227.9,849.3,232.7z M995.8,235c-1.7-1.5-4-2.3-6.7-2.3c-2.6,0-4.6,0.6-5.9,1.8
			c-3.4,3.2-6.1,5.7-8.2,7.5c-2.1,1.9-4.4,3.6-6.9,5.2c-2.5,1.6-5.1,2.8-7.8,3.6c-2.7,0.8-5.6,1.1-8.9,1.1c-4.8,0-9.2-1.2-13.2-3.6
			c-4-2.4-7.2-5.9-9.6-10.6c-2.4-4.7-3.6-10.1-3.7-16.3h52.9c7.1,0,12.5-1,16.4-3c3.9-2,5.8-6.4,5.8-13.2c0-7.3-1.9-14.5-5.6-21.6
			c-3.8-7.1-9.4-12.8-17-17.3c-7.5-4.5-16.6-6.7-27.2-6.7c-8.1,0-15.5,1.3-22.2,3.9c-6.7,2.6-12.3,6.4-16.8,11.3
			c-4.5,4.9-8,10.8-10.4,17.6c-2.4,6.8-3.6,14.3-3.6,22.2c0,17,4.8,30.4,14.5,40.3c9.6,9.9,23.1,14.9,40.5,14.9c7.6,0,14.3-1,20.1-3
			c5.8-2,10.7-4.5,14.6-7.5c3.8-3,6.8-6.1,8.7-9.4c1.9-3.3,2.9-6.1,2.9-8.6C998.4,238.6,997.6,236.5,995.8,235z M932.7,185.5
			c4.3-4.7,9.9-7,16.6-7c7.1,0,12.8,2.3,17.1,6.9c4.3,4.6,6.8,11.5,7.5,20.8h-49C925.8,197,928.4,190.1,932.7,185.5z"/>
	</g>
</g>
<g>
	<g>
		<path class="st1" d="M339.8,0H15.1C6.7,0,0,6.8,0,15.1v110c0,8.3,6.7,15.1,15.1,15.1h226.3c7.1,12.4,18.8,33.2,21.9,38.6
			c4.5,7.8,9.5,7.3,15.6-4.5c4.5-8.6,14.7-25.7,19.8-34.1h41c8.3,0,15.1-6.7,15.1-15.1v-110C354.8,6.8,348.1,0,339.8,0z"/>
	</g>
</g>
<g>
	<path class="st2" d="M79.1,67c-3.4-1.8-7.8-3.4-13.2-4.7c-4.5-1.1-8.1-2-10.7-2.8c-2.6-0.8-4.6-1.7-6.2-2.9
		c-1.5-1.2-2.3-2.7-2.3-4.5c0-2,1-3.7,3.1-5c2.1-1.3,4.7-2,7.8-2c3.1,0,5.5,0.5,7.3,1.5c1.8,1,3.3,2.4,4.7,4.1c1.6,2,3,3.6,4.3,4.6
		c1.3,1,2.8,1.5,4.6,1.5c2.5,0,4.4-0.6,5.7-1.9c1.3-1.3,2-2.9,2-4.9c0-1.8-0.6-3.7-1.9-5.6c-1.3-1.9-3.1-3.7-5.5-5.2
		c-2.4-1.6-5.4-2.8-9-3.8c-3.6-0.9-7.6-1.4-12.1-1.4c-5.7,0-10.6,0.9-14.7,2.8c-4.1,1.9-7.1,4.3-9.2,7.4c-2.1,3.1-3.1,6.4-3.1,9.9
		c0,3.9,1.1,7.2,3.4,9.9c2.3,2.7,5.3,4.8,9,6.5c3.8,1.6,8.6,3.2,14.6,4.7c5.3,1.3,9.1,2.6,11.4,4c2.3,1.4,3.5,3.6,3.5,6.7
		c0,2-1.1,3.8-3.3,5.3c-2.2,1.6-5.1,2.3-8.6,2.3c-4.3,0-7.7-0.8-10.2-2.3c-2.5-1.5-4.6-3.8-6.4-7c-0.9-1.6-1.8-2.9-2.8-3.8
		c-1-0.9-2.4-1.3-4.2-1.3c-2.1,0-3.8,0.7-5.2,2c-1.4,1.4-2,3-2,4.9c0,2.9,1.1,5.8,3.2,8.6c2.1,2.9,5.4,5.3,9.9,7.2
		c4.5,1.9,9.8,2.9,16.1,2.9c6.5,0,12.1-0.9,16.7-2.7c4.6-1.8,8-4.4,10.4-7.8c2.3-3.4,3.5-7.5,3.5-12.3c0-3.2-0.9-6-2.6-8.5
		C85.2,71,82.6,68.8,79.1,67z"/>
	<path class="st2" d="M243.7,80.6c0-3.5,0.1-6.7,0.1-9.5c0-2.8,0-6.3,0-10.4c0-6.5-0.9-11.7-2.7-15.6c-1.8-3.9-4.9-6.8-9.3-8.6
		c-4.4-1.8-10.4-2.7-18-2.7c-6.8,0-12.6,0.9-17.1,2.8c-4.6,1.9-8,4.3-10.1,7.1c-2.2,2.9-3.3,5.9-3.3,8.9c0,2,0.7,3.6,2.1,4.8
		c1.4,1.3,3.1,1.9,5.1,1.9c2.2,0,3.6-0.4,4.2-1.2c0.7-0.8,1.8-2.4,3.4-4.9c1.6-2.5,3.5-4.3,5.7-5.5c2.2-1.2,5.6-1.9,10-1.9
		c5.1,0,8.5,1.1,10.2,3.2c1.6,2.2,2.6,5.5,2.8,10.1c-3.7,1.1-7,2-10.2,2.7c-3.1,0.7-6.9,1.6-11.2,2.5c-4.4,0.9-7.1,1.5-8.2,1.7
		c-5.3,1.1-9.4,3.4-12.4,6.8c-3,3.4-4.5,7.4-4.5,12.2c0,3.5,0.9,6.8,2.7,9.8c1.8,3,4.4,5.4,7.8,7.2c3.4,1.8,7.3,2.7,11.8,2.7
		c4.9,0,9.3-0.8,13.2-2.5c3.9-1.6,8-4.1,12.2-7.4c1.9,3.2,3.8,5.6,5.5,7.3c1.7,1.7,3.5,2.5,5.3,2.5c2.1,0,4-0.7,5.7-2.2
		c1.7-1.5,2.5-3.1,2.5-4.9c0-1-0.5-3.3-1.6-6.9C244.3,87.3,243.7,83.9,243.7,80.6z M226.8,72.2c0,6-0.8,10.4-2.4,13
		c-1.4,2.4-3.5,4.3-6.4,5.8c-2.9,1.5-6.1,2.3-9.5,2.3c-3.2,0-5.8-0.9-7.8-2.8c-2-1.8-3-4.1-3-6.7c0-2.6,0.9-4.5,2.6-6
		c1.7-1.4,3.5-2.4,5.4-2.9c1.9-0.5,5.2-1.3,10.1-2.3c4.9-1,8.6-2,11.1-3V72.2z"/>
	<path class="st2" d="M323.9,50.3c-2.6-5.3-6.2-9.4-10.7-12.1c-4.5-2.8-9.4-4.2-14.8-4.2c-4.5,0-8.5,1-12,2.8
		c-3.5,1.9-6.9,4.9-10.2,8.9v-2.1c0-3.1-0.8-5.6-2.3-7.2c-1.5-1.7-3.6-2.5-6-2.5c-2.5,0-4.5,0.8-5.9,2.5c-1.4,1.6-2.2,4.1-2.2,7.4
		V119c0,3.8,0.5,6.7,1.6,8.6c1.1,2,3.2,3,6.5,3c5.6,0,8.4-3.8,8.4-11.5V93c3.1,3.9,6.3,6.8,9.7,8.8c3.4,2,7.6,3,12.5,3
		c4.1,0,8-0.8,11.6-2.5c3.6-1.6,6.7-4,9.3-7c2.6-3,4.7-6.8,6.2-11.3c1.5-4.5,2.3-9.4,2.3-14.8C327.8,62,326.5,55.7,323.9,50.3z
		 M308.1,81.2c-1.5,3.4-3.5,5.9-5.9,7.6c-2.5,1.7-5.1,2.5-8,2.5c-4.8,0-8.9-1.9-12.2-5.8c-3.3-3.9-4.9-9.2-4.9-16.2
		c0-7.4,1.6-12.9,4.9-16.7c3.3-3.8,7.3-5.7,12.1-5.7c3,0,5.8,0.9,8.3,2.6c2.5,1.8,4.4,4.3,5.8,7.6c1.4,3.3,2.1,7.2,2.1,11.8
		C310.3,73.8,309.6,77.9,308.1,81.2z"/>
	<path class="st2" d="M163.5,45.4c-1.8-3.7-4.5-6.5-8.1-8.5c-3.6-2-7.7-3-12.3-3c-4.7,0-8.9,0.9-12.5,2.8c-3.6,1.9-7,4.9-10,8.9
		v-2.1c0-2.1-0.4-3.9-1.1-5.3c-0.7-1.4-1.7-2.5-3-3.3c-1.2-0.7-2.6-1.1-4.1-1.1c-2.5,0-4.5,0.8-5.9,2.5c-1.5,1.6-2.2,4.1-2.2,7.4
		v50.3c0,3.4,0.8,6,2.4,7.8c1.6,1.8,3.7,2.7,6.2,2.7c2.6,0,4.7-0.9,6.3-2.7c1.6-1.8,2.5-4.4,2.5-7.9V72.4c0-7.1,0.4-12,1.3-14.6
		c1.2-3.2,3.1-5.8,5.6-7.6c2.5-1.8,5.4-2.8,8.5-2.8c4.8,0,7.9,1.5,9.5,4.6c1.6,3,2.4,7.4,2.4,13.2v29c0,3.4,0.8,6,2.4,7.8
		c1.6,1.8,3.7,2.7,6.3,2.7c2.6,0,4.6-0.9,6.2-2.7c1.6-1.8,2.4-4.4,2.4-7.9V61.8c0-3.8-0.2-7-0.5-9.4
		C165.3,49.9,164.6,47.6,163.5,45.4z"/>
</g>
</svg>
